<svg height="512" viewBox="0 0 64 64" width="512" xmlns="http://www.w3.org/2000/svg"><path fill="#FFF" d="M32 61a29.05 29.05 0 0 1-15.09-4.24l-12.6 4.17c-.36.12-.75.03-1.02-.24s-.36-.66-.24-1.02l4.19-12.58A29.05 29.05 0 0 1 3 32C3 16.01 16.01 3 32 3s29 13.01 29 29-13.01 29-29 29m-14.96-6.34c.19 0 .37.05.53.15C21.91 57.55 26.9 59 32 59c14.89 0 27-12.11 27-27S46.89 5 32 5 5 17.11 5 32c0 5.1 1.45 10.09 4.19 14.43.16.25.2.57.1.85L5.58 58.4l11.15-3.69c.1-.03.2-.05.31-.05M39.88 47c-2.56 0-5.07-.44-7.46-1.31-6.12-2.22-10.91-7-13.12-13.12-.87-2.39-1.3-4.9-1.3-7.46s.44-5.06 1.3-7.46c.18-.49.7-.76 1.2-.62l6.96 1.9c.43.12.74.51.74.96v10.44c0 .45-.3.85-.74.96l-.04.01c1.35 2.7 3.56 4.91 6.26 6.26l.01-.04c.12-.44.51-.74.96-.74h10.44c.45 0 .85.3.96.74l1.89 6.96c.14.5-.13 1.02-.62 1.2-2.37.88-4.88 1.32-7.44 1.32M20.89 19.21c-.59 1.91-.89 3.89-.89 5.91 0 2.32.4 4.6 1.19 6.78 2.01 5.56 6.36 9.91 11.92 11.92a20 20 0 0 0 12.68.29l-1.45-5.31h-8.92l-.12.43c-.08.27-.26.5-.52.63-.25.13-.55.14-.82.03a16.03 16.03 0 0 1-8.87-8.87c-.11-.26-.09-.56.03-.82.13-.25.36-.44.63-.52l.43-.12v-8.92z"/></svg>