<svg xmlns="http://www.w3.org/2000/svg" id="Layer_1" viewBox="0 0 200 195.26"><defs><style>.cls-1{fill:#fff}</style></defs><path d="M156.81 52.16H43.16L0 95.27l96.87 96.88 3.12 3.12 3.12-3.12L200 95.27zM99.99 185.2l-8.14-8.13-81.77-81.8L46.1 59.28h107.76l36.06 35.99-81.79 81.79-8.14 8.13Z" class="cls-1"/><path d="m63.43 91.71 28.42 85.35 5.02 15.08 3.12 3.12 3.12-3.12 5.02-15.08 28.41-85.35h-73.1Zm36.56 87.25L73.31 98.83h53.35z" class="cls-1"/><path d="M74.66 98.83H5.04v-7.12h57.04l-20.5-34.15 6.1-3.67z" class="cls-1"/><path d="M67.96 101.49 41.58 57.56l6.1-3.67 21.11 35.16L97.21 53.5l5.56 4.45z" class="cls-1"/><path d="M132.02 101.49 97.21 57.95l5.56-4.45 28.41 35.55 21.11-35.16 6.11 3.67z" class="cls-1"/><path d="M194.96 98.83h-69.65l26.98-44.94 6.11 3.67-20.51 34.15h57.07zM96.44 0h7.12v23.74h-7.12zm20.076 26.327 9.09-21.931 6.577 2.726-9.089 21.93zM134.08 36.38l16.787-16.788 5.034 5.035-16.787 16.787zM67.815 7.104l6.578-2.725 9.084 21.933-6.578 2.725zM44.098 24.621l5.036-5.034 16.784 16.79-5.036 5.034z" class="cls-1"/></svg>