<?xml version="1.0" encoding="UTF-8"?>
<svg id="Layer_1" data-name="Layer 1" xmlns="http://www.w3.org/2000/svg" xmlns:xlink="http://www.w3.org/1999/xlink" viewBox="0 0 39.45 41.5">
  <defs>
    <style>
      .cls-1 {
        fill: #fff;
      }

      .cls-1, .cls-2 {
        stroke-width: 0px;
      }

      .cls-2 {
        fill: url(#_Áåçûìÿííûé_ãðàäèåíò_31);
      }
    </style>
    <linearGradient id="_Áåçûìÿííûé_ãðàäèåíò_31" data-name="Áåçûìÿííûé ãðàäèåíò 31" x1="0" y1="20.75" x2="39.45" y2="20.75" gradientUnits="userSpaceOnUse">
      <stop offset="0" stop-color="#bb945c"/>
      <stop offset=".28" stop-color="#967040"/>
      <stop offset=".42" stop-color="#c4985f"/>
      <stop offset=".56" stop-color="#ebba79"/>
      <stop offset=".63" stop-color="#fac884"/>
      <stop offset=".71" stop-color="#e8b878"/>
      <stop offset=".88" stop-color="#bb9059"/>
      <stop offset="1" stop-color="#967040"/>
    </linearGradient>
  </defs>
  <path class="cls-1" d="M10.1,31c-.26-.01-.51-.12-.7-.3.18.2.43.31.7.3ZM6,12.85c-.26-.09-.53-.12-.8-.1-.46.02-.91.16-1.3.4.39-.25.84-.39,1.3-.4.27-.03.55,0,.8.1ZM3.4,15.35l1.7,4.8-1.7-4.8Z"/>
  <path class="cls-2" d="M36.8,15.65c-.97-.52-1.97-.99-3-1.4-.1,0-.3-.1-.4-.1-1.54-.71-3.36-.03-4.07,1.51-.05.11-.09.22-.13.34l-1.2,3.35-3.6,10.1c-.23.92-1.05,1.58-2,1.6h-.4c-.44.04-.87-.11-1.2-.4-.33-.25-.58-.6-.7-1q0-.1-.1-.2l-2.9-8.4-.6-1.8-3.6,10.2c-.23.92-1.05,1.58-2,1.6h-.7c-.26-.01-.51-.12-.7-.3-.46-.32-.81-.77-1-1.3l-3.3-9.3-1.7-4.8c.01-.11-.02-.22-.1-.3v-.4c.02-.58.27-1.12.7-1.5.37-.18.78-.28,1.2-.3.27-.02.54.02.8.1.1,0,.2.1.4.2s.5.5.7,1l3.5,10.9.5-1.5,3-9.3c.23-.91,1.06-1.53,2-1.5h.3c.24-.02.48.02.7.1.15.02.29.09.4.2.41.29.69.71.8,1.2l3.6,10.8.5-1.5,1.7-5.4,1.3-3.9v-.1c0-.1.1-.2.1-.3.48-1.14,1.28-2.11,2.3-2.8L9,.75C6.06-.86,2.36.22.75,3.16.25,4.08-.01,5.1,0,6.15v29.2c0,3.4,2.77,6.15,6.17,6.15,1.02,0,2.03-.26,2.93-.75l27.2-14.6c2.98-1.7,4.03-5.49,2.34-8.48-.46-.8-1.09-1.49-1.84-2.02Z"/>
</svg>