<?xml version="1.0" encoding="UTF-8"?> <svg xmlns="http://www.w3.org/2000/svg" id="Layer_1" viewBox="0 0 300.33 73.62"><defs><style> .cls-1 { fill: #fff; } </style></defs><path id="svg_25" class="cls-1" d="M55.05,58.53c-.27,1.3-.46,2.54-.68,3.79-.12.6.07,1.25.52,1.67.77.66,1.71,1.07,2.7,1.19.37,0,.73,0,.68.57-3.43-.2-6.87-.2-10.3-.57,0-.36.27-.36.46-.41,1.42-.16,2.54-1.32,2.62-2.76.18-1.3.43-2.6.78-3.86,0-.57-.27-.73-.64-.89-.87-.3-1.73-.69-2.54-1.14-.96-.52-1.83-1.19-2.6-1.97-.18-.23-.44-.39-.73-.43l-9.39,19.89h-.25c-.53-2.49-.89-5.05-1.3-7.6s-.84-5.16-1.21-7.7-.78-5.16-1.19-7.7-.78-5.11-1.19-7.7c-.48.16-.43.46-.53.73-1.55,5.3-3.79,10.39-6.69,15.09-1.12,1.9-2.54,3.61-4.22,5.05-2.42,2.13-5.48,3.4-8.7,3.56-2.47.18-4.95-.44-7.03-1.78-1.44-.84-2.56-2.13-3.17-3.68-.66-1.69-.59-3.58.21-5.21.84-1.78,2.95-2.54,4.73-1.73.14.07.28.14.41.23.98.52,1.62,1.53,1.65,2.63,0,2.13-.57,2.9-2.65,3.74-.18.07-.3.23-.32.43.11.57.43,1.07.89,1.41,1.46,1.51,3.54,2.28,5.64,2.08,1.6-.2,3.15-.75,4.52-1.62,3.15-1.96,5.73-4.71,7.51-7.97,1.78-3.43,3.2-7.03,4.22-10.76.68-2.4,1.3-4.79,1.78-7.12.43-1.39.53-2.85.32-4.27-.2-1.21-1.03-2.22-2.19-2.65-.18-.07-.34-.16-.48-.27-.66,1.26-1.21,2.56-1.65,3.91-1.35,3.63-3.24,7.03-5.62,10.09-1.85,2.44-4.31,4.36-7.12,5.57-2.65,1.25-5.78.89-8.08-.93-1.46-1.25-2.49-2.9-2.95-4.75-.66-2.1-.8-4.32-.37-6.49.32-2.01,1.21-3.9,2.54-5.43,1.6-1.78,3.72-3.02,6.05-3.56,1.65-.43,3.38-.62,5.09-.57h9.95c.76,0,1.24-.38,1.44-1.14,1.37-4.95,2.72-9.84,4.07-14.78.98-3.56,1.92-7.29,2.95-10.94.16-.57.11-1.25.68-1.78.3.69.5,1.44.59,2.19.36,1.62.68,3.22.98,4.84s.68,3.56,1.05,5.34c.46,2.24.89,4.43,1.35,6.67.52,2.6,1.03,5.2,1.62,7.76.59,2.56,1.3,5.46,1.97,8.22s1.35,5.21,2.19,7.7c.5,1.83,1.17,3.63,2.01,5.34.53-.57.96-1.23,1.25-1.94,2.92-5.46,5.73-11.03,8.38-16.65.18-.59.75-.98,1.35-.94h15.51c.39.07.78.04,1.14-.14-.11-1.14-.34-2.28-.68-3.38-1.07-4.04-3.2-7.7-6.21-10.6-1.65-1.62-3.65-2.88-5.82-3.7-2.24-.94-4.68-1.33-7.12-1.16-2.63.05-5.2.89-7.35,2.4-2.4,1.69-3.84,4.45-3.84,7.38.05,2.28,1.05,4.41,2.78,5.89,0,0,.14,0,.41.11-.28-.66-.41-1.37-.36-2.08-.07-1.74,1.3-3.22,3.04-3.29h.46c1.49-.07,2.86.82,3.38,2.22.48,1.51.05,3.17-1.1,4.27-.93.85-2.13,1.32-3.38,1.3-2.06.14-4.07-.55-5.62-1.92-1.46-1.28-2.47-2.99-2.86-4.89-1.09-5.25,1-9.22,5.21-12.17,2.74-1.9,6.07-2.74,9.38-2.35,4.57.44,8.9,2.31,12.35,5.34,3.13,2.62,5.64,5.91,7.33,9.63,1.32,2.95,2.13,6.1,2.4,9.32.23,2.92.09,5.84-.39,8.72-.5,4.31-1.97,8.43-4.31,12.08-1.92,2.99-4.79,5.23-8.15,6.35-2.03.64-4.18.84-6.3.57-.43-.11-.89-.05-1.3.11h.04v.02ZM73.11,29.69c-1.35.07-2.7.07-4.06,0-2.19,0-4.32.16-6.51.36-1.32.04-2.46.93-2.81,2.19-.36,1.25-.73,2.51-.98,3.81-.48,2.38-.89,4.84-1.3,7.28s-.84,5.16-1.26,7.7c-.14.89-.25,1.78-.41,2.62,1.65.25,3.34.12,4.95-.37,3.5-1.12,6.46-3.49,8.33-6.65,2.37-3.75,3.77-8.02,4.11-12.45.21-1.44.21-2.92,0-4.36,0,0-.05-.11-.05-.11ZM25.07,30.32c-1.3.05-2.62,0-3.91-.16-2.7,0-5.46,0-8.17.27-2.54.02-4.96,1.07-6.71,2.92-1.87,1.87-2.54,4.59-1.78,7.12.55,2.19,1.96,4.07,3.91,5.21,1.99,1.21,4.45,1.39,6.6.46,2.3-.98,4.2-2.72,5.34-4.95,1.21-2.26,2.26-4.61,3.11-7.03.46-1.25.94-2.38,1.51-3.84,0,0,.09,0,.09,0ZM37.7,63.62h.11c2.03-3.79,3.84-7.65,5.71-11.49.18-.28.18-.66,0-.94-.68-1.12-1.23-2.31-1.67-3.56-1.1-2.78-2.06-5.6-2.88-8.47-.78-2.86-1.51-5.68-2.19-8.54-.11-.41-.11-.84-.46-1.09-1.85.05-3.29,1.6-3.24,3.45,0,.16.02.34.05.5.16.84.27,1.62.37,2.46.41,3.01.93,6.03,1.35,9.06.16.93.3,1.87.41,2.86.21,2.33.68,4.63.94,6.92.27,2.3.68,4.95,1.03,7.44.11.37,0,.94.43,1.35,0,0,.04.05.04.05ZM32.65,12.03c-.28.43-.48.91-.57,1.41l-4.22,14.23c-.11.36-.32.73,0,1.03,2.76.18,5.53.11,8.29-.21-1.14-5.52-2.35-10.92-3.54-16.55l.04.09ZM55.88,32.97c-.73,1.41-1.41,2.81-2.13,4.16-2.13,4-4.06,8.17-6.24,12.19-.27.32-.21.8.11,1.05,0,0,.04.02.05.04,1.48,1.28,3.18,2.26,5.04,2.86,1.26-6.81,2.35-13.49,3.18-20.3Z"></path><g><path id="svg_26" class="cls-1" d="M112.8,42.4c0,.32-.09.62-.27.87h-7.12c-.42,0-.62-.33-.62-.98.53-.09,1.07-.23,1.57-.43.53-.2.93-.68,1-1.25.59-3.33-1.23-6.62-4.38-7.86h-.34c-1.46,3.56-2.13,7.45-3.56,11.14.77.89,2.13.68,3.11,1.51-.77.16-1.53.16-2.3,0-.27-.05-.53-.12-.78-.21-.32-.12-.69.05-.82.37-.48.93-1.09,1.78-1.78,2.54-.37.52-1,.8-1.62.73h-4.36c-.43.32-.21.78-.37,1.21-.98.14-1.62-.53-2.24-1.1-.55-.52-.94-1.17-1.1-1.92-.11-.84.16-1.67.73-2.3.91-1.07,2.35-1.53,3.7-1.14.66.3,1.12.93,1.19,1.65-.12.78-.84,1.33-1.62,1.26-.25,0-.52-.16-.89-.27.3.82,1.01,1.41,1.89,1.51,2.3.46,4.55-.93,5.2-3.18-1.17-.68-2.21-1.6-3.01-2.7-2.21-3.01-1.55-7.24,1.46-9.45.57-.41,1.19-.75,1.87-.96,1.16-.53,2.44-.75,3.72-.62.46.09.89-.21.98-.66h0c.43-1.12.98-2.19,1.67-3.17.5-.77,1.1-1.48,1.78-2.1.93-.87,2.13-1.35,3.4-1.35h3.01c.37,0,.68,0,.73.53s-.14.57-.62.68c-.93.14-1.25.62-1.25,1.65v13.17c0,1.46.68,2.38,1.87,2.6,0,0,.21,0,.32.21h-.14ZM101.18,32.45c-1.78-.62-4.89,1.19-5.76,4.22-.84,2.49.14,5.23,2.38,6.6,1.48-3.49,2.19-7.22,3.38-10.82ZM103.37,31.15c.62.36,1.3.66,1.99.87.6.39,1.26.71,1.92,1,.23-1.87.18-3.77-.16-5.62-1.73.68-3.08,2.03-3.75,3.75Z"></path><path id="svg_27" class="cls-1" d="M225.87,26.46c.25.21.27.59.05.84-.02.02-.04.04-.05.05-.32.32-.21.62-.11.94,1.14,3.43,2.3,6.81,3.43,10.25.11.27.11.62.46.84.78-2.35,1.97-4.54,2.56-6.97.25-1.01.3-2.05.2-3.08-.09-.85-.69-1.57-1.51-1.78-.3-.11-.62-.16-.57-.57s.43-.43.73-.43h3.86c.25.16.3.43.2.53-.62.73-.2,1.41,0,2.08,1.16,3.38,2.35,6.76,3.56,10.14.37,0,.43-.41.53-.68.87-2.24,1.78-4.48,2.6-6.71.27-.78.48-1.58.62-2.4.21-1.35-.21-1.92-1.57-2.03h-.2c-.27-.27-.27-.52,0-.89h5.87c.16.48.21.78-.36,1-.53.23-.98.66-1.25,1.19-.84,1.42-1.57,2.9-2.15,4.45-.84,1.97-1.62,4-2.4,5.98-.52,1.35-1.05,2.7-1.62,4-.2.49-.65.71-1.35.68-1.14-3.38-2.35-6.87-3.56-10.3-.41,0-.46.37-.62.62-1.16,2.38-2.17,4.8-3.08,7.29-.25.62-.46,1.19-.68,1.78-.09.37-.43.64-.82.62-.53,0-.62-.36-.73-.73-1.16-3.56-2.3-6.97-3.43-10.41-.43-1.19-.89-2.38-1.37-3.56-.27-.93-.96-1.65-1.87-1.97-.12-.28-.09-.6.11-.84l4.5.05h0Z"></path><path id="svg_28" class="cls-1" d="M148.29,43.16c-1.14-2.17-2.03-4.47-3.01-6.71s-1.94-4.48-2.97-6.78c-.37.25-.27.52-.27.73v7.76c0,.75.11,1.49.27,2.22.11.89.64,1.67,1.44,2.1.25.09.37.34.3.59-.07.2-.25.32-.46.3h-4.63c-.16-.41-.16-.73.2-.93,1.03-.69,1.64-1.85,1.62-3.08v-10.35c0-.57-.36-1.09-.89-1.3-.3-.16-.62-.21-.98-.37s-.16-.46.09-.78h4.04c.36,0,.68.23.78.57.98,2.24,1.97,4.43,2.95,6.67.68,1.51,1.32,3.02,1.99,4.52.07.25.27.44.52.53,1.78-4.11,3.43-8.18,5.2-12.29h10.62c.32-.04.62.09.84.32-.66.18-1.35.23-2.03.2-1.03.16-2.03.27-3.08.37-2.12,0-3.84,1.69-3.84,3.81v8.79c0,1.65.27,1.97,1.78,2.49.14.23.14.5,0,.73h-6.12c-.16-.46-.16-.73.48-.87.93-.09,1.6-.91,1.51-1.81v-10.91c-.04-.12-.07-.25-.09-.37-.78,1.57-1.37,3.08-1.99,4.59s-1.3,3.06-1.97,4.63-1.25,3.02-1.92,4.54h-.27l-.09.11h-.02Z"></path><path id="svg_29" class="cls-1" d="M128.67,43.91c-.62.3-.93,0-1.25-.43l-5.62-7.65c-1.41-1.92-2.81-3.84-4.22-5.73-.12-.16-.27-.32-.41-.46-.32.16-.21.41-.21.62,0,2.4-.11,4.84.11,7.24.04,1.26.3,2.51.78,3.68.21.55.62,1,1.14,1.26.25.07.39.32.32.57,0,.3-.32.36-.59.36h-4.84c-.25,0-.52,0-.57-.3-.07-.25.04-.52.27-.62,1.09-.82,1.74-2.08,1.78-3.45.37-3.31.5-6.65.37-9.98,0-1.05-.43-1.46-1.46-1.57h-.27c-.16-.23-.16-.55,0-.78,0,0,.11-.11.16-.11h3.33c.62-.04,1.21.27,1.57.78,2.08,2.86,4.27,5.78,6.35,8.65l1.92,2.54c.11-.11.21-.2.21-.25-.21-1.94,0-3.91,0-5.89-.05-1.21-.3-2.42-.73-3.56-.18-.59-.59-1.07-1.14-1.35-.37-.16-.32-.21-.32-.89h5.89c.14.43.2.73-.37.94-.59.28-1.03.82-1.19,1.46-.37,1.28-.6,2.62-.68,3.95-.27,3.56,0,6.97-.11,10.41-.12.14-.2.34-.16.53h-.07v.02Z"></path><path id="svg_30" class="cls-1" d="M188.08,34.84c-.18-.16-.43-.23-.68-.2h-6c-.84,0-.89,0-.89.87v4.84c0,1.21.27,1.62,1.41,1.99.53.14.68.41.48.93h-6.51c-.16-.46-.16-.73.36-.87,1.32-.37,1.46-.59,1.46-1.89v-11.3c0-1.35-.3-1.65-1.78-1.97-.16-.78-.16-.84.52-.84h5.46c.27,0,.48,0,.53.37.07.25-.05.52-.32.6-.04,0-.07.02-.11.02-.21,0-.43.05-.62.11-.36.16-.73.3-.84.78-.18,1.71-.18,3.43,0,5.14h7.45v-4.41c0-1.21-.32-1.51-1.46-1.78-.11,0-.23-.05-.32-.11-.05-.11-.09-.23-.11-.36v-.37c0-.11.16-.11.21-.11h5.87c.27,0,.48.21.48.48s-.16.41-.48.46c-1.35.32-1.49.52-1.49,1.87v11.24c0,1.41,0,1.57,1.46,1.94.3.11.52.2.52.52s-.32.41-.62.41h-5.71c-.21-.21-.25-.53-.11-.78,1.78-.52,1.78-.62,1.78-2.44v-5.16h.05,0Z"></path><path id="svg_31" class="cls-1" d="M276.09,34.89v5.34c0,1.03.32,1.97,1.57,2.24.46.09.62.36.41.87h-6.46c-.11-.21-.11-.46,0-.68l.16-.16c1.51-.3,1.78-.52,1.78-2.03v-11.35c0-1.37-.27-1.62-1.57-1.78,0,0-.11,0-.21-.11-.2-.84-.2-.89.59-.89h7.74c.39-.02.77-.02,1.16,0,1.53.02,2.74,1.28,2.72,2.79,0,.25-.04.52-.12.77-.18,1.53-1,2.92-2.24,3.81-.52.41-1.09.84-1.65,1.25.44.89.98,1.74,1.55,2.56.75,1.33,1.64,2.56,2.67,3.68.43.46.94.82,1.51,1.05.25.11.62.21.57.62s-.48.41-.78.41h-2.08c-.94.11-1.87-.39-2.3-1.25-1.3-2.03-2.54-4.06-3.84-6.08-.32-.27-.48-.68-1.05-1.05h-.11v-.02ZM276.09,30.51h0v1.89c-.04.36.11.69.37.93.59.52,1.33.84,2.12.89.85.09,1.65-.46,1.89-1.3.48-1.48.3-3.1-.52-4.43-.75-1.07-2.15-1.39-3.29-.77-.36.12-.59.48-.57.87v1.92Z"></path><path id="svg_32" class="cls-1" d="M213.73,42.24c.09.07.2.12.32.16,2.44.5,4.84-.96,5.52-3.34.14-.87.3-.87,1.35-.73.2.48-.11.94-.21,1.35-.16,1.21-.41,2.38-.73,3.56-.16.68-.46.84-1,.43-.36-.27-.8-.37-1.25-.32h-7.65c-.34.07-.71.04-1.03-.11-.11-.36-.11-.62.41-.77,1.35-.43,1.51-.59,1.51-2.05v-10.89c0-.28-.05-.57-.11-.84-.16-.98-.32-1.19-1.25-1.3-.57,0-.73-.32-.57-.78s.62-.16.87-.16h7.56c.75.12,1.49-.16,1.97-.73.46,0,.57.27.57.62v4.07c0,.41-.11.62-.57.68-.36.05-.68-.2-.73-.53v-.04c-.09-1.8-1.62-3.18-3.42-3.1h-.14c-1.51-.11-1.46-.11-1.62,1.41-.11.87-.02,1.76.23,2.6.28,1.48,1.62,2.53,3.11,2.46h1.37c.2.38.2.79,0,1.25-1.16,0-2.35.11-3.56.11s-.94,0-.94.87v6.05l-.04.05v.02Z"></path><path id="svg_33" class="cls-1" d="M247.57,26.46h8.27c.64.12,1.3-.07,1.78-.52.37-.36.89-.11.89.46v3.86c0,.57-.25.78-.73.78-.36,0-.68-.27-.68-.64v-.09c0-1.37-1-2.51-2.35-2.7-.8-.21-1.64-.28-2.47-.21-.28.59-.41,1.23-.37,1.87-.09.93.04,1.85.37,2.7.44,1.23,1.62,2.01,2.92,1.94.46.02.94.02,1.41,0,.36,1.09.25,1.25-.68,1.3s-2.08,0-3.13,0c-.25,0-.46,0-.68.3v6.78c2.86.3,5.16-.43,6.03-3.97.32-.11.68-.11,1,0,.16.18.21.44.11.68l-.78,4.07c-.16.87-.46,1.03-1.19.52-.34-.2-.73-.27-1.1-.21h-8.15c-.3,0-.57-.16-.57-.46,0-.25.21-.44.46-.46.16,0,.37,0,.52-.11.48-.11.85-.5.94-1,.11-.41.16-.82.16-1.25v-10.43c0-.36-.05-.71-.11-1.05-.02-.69-.6-1.26-1.3-1.25-.73,0-.73-.32-.57-.89v-.04h0Z"></path><path id="svg_34" class="cls-1" d="M284.52,26.46h4.63c.43.53,0,.84-.2,1.21,1.25,2.54,2.54,5.04,3.79,7.6.11,0,.27,0,.27-.11,1.25-1.73,2.15-3.67,2.7-5.73.32-1.51,0-1.92-1.51-2.08h-.2c-.09,0-.16-.27-.16-.46-.02-.16.04-.32.16-.43h6.19c.12.28.16.59.11.89-.78.18-1.49.62-1.99,1.25-.91,1.26-1.73,2.56-2.49,3.91-.78,1.19-1.46,2.49-2.19,3.74-.27.44-.41.94-.41,1.46v2.51c0,1.46.2,1.78,1.55,2.28h.11c.25.04.41.27.37.5v.04c-.05.23-.28.37-.52.36h-5.68c-.32,0-.59-.11-.59-.46s.21-.37.48-.46c1.46-.48,1.46-.64,1.57-2.13.18-2.31-.36-4.63-1.57-6.62-1-1.67-1.67-3.56-2.76-5.16-.32-.57-.84-1-1.46-1.19-.43,0-.43-.11-.21-.84v-.05h0Z"></path><path id="svg_35" class="cls-1" d="M168.35,26.56c.62,1.78,1.25,3.56,1.92,5.46.94,2.7,1.87,5.34,2.86,8.13.25.96.91,1.78,1.78,2.24.48.14.32.52.21.87h-4.5c-.2-.25-.25-.52,0-.68.48-.3.27-.68.16-1.09-.41-1.3-.87-2.51-1.35-3.81h-5.05c-.59,1.01-.91,2.15-.93,3.33,0,.89.46,1.37,1.41,1.37.62,0,.68.25.62.82-.94.11-1.9.14-2.86.11h-2.85c-.16-.36-.27-.73.16-.89,1.03-.5,1.8-1.42,2.08-2.54.98-2.44,1.97-4.89,2.92-7.33.68-1.78,1.35-3.56,2.08-5.34.28-.71.28-.91,1.33-.66ZM164.79,36.67h4.27c-.68-1.92-1.25-3.75-1.89-5.52-.96,1.78-1.76,3.65-2.38,5.57,0,0,0-.05,0-.05Z"></path><path id="svg_36" class="cls-1" d="M198.79,48.94v-3.79c-.04-.28.18-.55.48-.59h0c.3,0,.57,0,.68.32.12.32.23.66.3,1,.32.87.89,1.55,1.46,1.49.89-.09,1.25-.77,1.46-1.49.21-.69.32-1.41.32-2.13v-14.78c.07-.77-.5-1.44-1.26-1.51h-.09c-.53-.11-.73-.27-.59-.78s.62-.16.94-.16h4.95c.49,0,.69.28.62.84-.11.84-.11.11-.16.11-1.41.21-1.65.46-1.65,1.97v11.51c-.05,3.01-1.44,5.82-3.77,7.7-.37.28-.82.46-1.3.46-.77-.14-1.53-.2-2.3-.16h-.09,0Z"></path><path id="svg_37" class="cls-1" d="M271.52,38.38c-.04.71-.16,1.41-.37,2.08-.18,1.01-.39,2.03-.68,3.02-.16.62-.52.73-.94.32-.32-.32-.75-.46-1.19-.43h-7.86c-.36,0-.87.21-.93-.36s.41-.53.78-.62c.6-.07,1.07-.59,1.09-1.21,0-.52.16-1.09.16-1.6v-9.22c0-.57,0-1.1-.11-1.67-.16-.94-.27-1.14-1.3-1.3-.57-.11-.62-.37-.57-.84.32-.18.68-.23,1.03-.16h4.84c.68,0,.73,0,.57.89,0,0-.25,0-.36.11-1.1.11-1.41.46-1.46,1.62v12.33c-.07.37-.04.75.11,1.1,1.33.28,2.74.04,3.9-.69,1.1-.78,1.81-1.99,1.97-3.33.41-.18.89-.21,1.32-.05Z"></path><path id="svg_38" class="cls-1" d="M131.75,43.38c-.02-.18-.02-.34,0-.52v-.32c1.78-.46,1.87-.62,1.87-2.49v-10.67c0-1.57-.25-1.78-1.78-2.08-.07-.09-.12-.18-.16-.27-.07-.2-.04-.41.11-.57h5.55c.37,0,.94-.2,1.05.37s-.48.52-.89.62c-.48.07-.87.46-.94.94-.12.59-.2,1.17-.21,1.78v10.18c.11,1,.43,1.78,1.51,2.08.27,0,.57.16.53.53s-.37.41-.68.41c0,0-5.96,0-5.96,0Z"></path></g></svg> 