<svg xmlns="http://www.w3.org/2000/svg" xmlns:xlink="http://www.w3.org/1999/xlink" id="Layer_1" x="0px" y="0px" width="200px" height="200px" viewBox="0 0 200 200" xml:space="preserve"><g>	<g>		<path fill="#191818" d="M156.811,54.528H43.159L0,97.64l96.874,96.875l3.119,3.117l3.117-3.117L200,97.64L156.811,54.528z     M99.992,187.565l-8.136-8.134L10.082,97.64l36.02-35.99h107.763l36.056,35.99l-81.793,81.792L99.992,187.565z"></path>		<g>			<path fill="#191818" d="M63.434,94.079l28.423,85.353l5.017,15.083l3.119,3.117l3.117-3.117l5.018-15.083l28.409-85.353H63.434z      M99.992,181.331l-26.684-80.13h53.351L99.992,181.331z"></path>			<polygon fill="#191818" points="74.664,101.198 5.041,101.198 5.041,94.076 62.083,94.076 41.576,59.925 47.684,56.259    "></polygon>			<polygon fill="#191818" points="67.956,103.86 41.576,59.925 47.684,56.259 68.791,91.413 97.21,55.868 102.771,60.316    "></polygon>			<polygon fill="#191818" points="132.02,103.86 97.21,60.316 102.771,55.868 131.185,91.413 152.288,56.259 158.396,59.925    "></polygon>			<polygon fill="#191818" points="194.96,101.198 125.312,101.198 152.288,56.259 158.396,59.925 137.893,94.076 194.96,94.076         "></polygon>		</g>	</g>	<g>		<rect x="96.439" y="2.368" fill="#191818" width="7.123" height="23.74"></rect>					<rect x="120.786" y="7.211" transform="matrix(0.9238 0.3828 -0.3828 0.9238 16.7729 -46.1416)" fill="#191818" width="7.124" height="23.742"></rect>					<rect x="141.429" y="21.002" transform="matrix(0.7071 0.7071 -0.7071 0.7071 65.7174 -92.8988)" fill="#191818" width="7.121" height="23.742"></rect>					<rect x="63.779" y="15.52" transform="matrix(0.3827 0.9239 -0.9239 0.3827 64.3313 -58.112)" fill="#191818" width="23.742" height="7.124"></rect>					<rect x="43.139" y="29.312" transform="matrix(0.707 0.7072 -0.7072 0.707 39.3628 -29.2704)" fill="#191818" width="23.74" height="7.121"></rect>	</g></g>	<metadata>		    </metadata></svg>