<?xml version="1.0" encoding="UTF-8"?>
<svg id="Layer_1" xmlns="http://www.w3.org/2000/svg" viewBox="0 0 200 195.26">
  <defs>
    <style>
      .cls-1 {
        fill: #fff;
      }
    </style>
  </defs>
  <g>
    <path class="cls-1" d="M156.81,52.16H43.16L0,95.27l96.87,96.88,3.12,3.12,3.12-3.12,96.89-96.88-43.19-43.11ZM99.99,185.2l-8.14-8.13L10.08,95.27l36.02-35.99h107.76l36.06,35.99-81.79,81.79-8.14,8.13Z"/>
    <g>
      <path class="cls-1" d="M63.43,91.71l28.42,85.35,5.02,15.08,3.12,3.12,3.12-3.12,5.02-15.08,28.41-85.35s-73.1,0-73.1,0ZM99.99,178.96l-26.68-80.13h53.35l-26.67,80.13Z"/>
      <polygon class="cls-1" points="74.66 98.83 5.04 98.83 5.04 91.71 62.08 91.71 41.58 57.56 47.68 53.89 74.66 98.83"/>
      <polygon class="cls-1" points="67.96 101.49 41.58 57.56 47.68 53.89 68.79 89.05 97.21 53.5 102.77 57.95 67.96 101.49"/>
      <polygon class="cls-1" points="132.02 101.49 97.21 57.95 102.77 53.5 131.18 89.05 152.29 53.89 158.4 57.56 132.02 101.49"/>
      <polygon class="cls-1" points="194.96 98.83 125.31 98.83 152.29 53.89 158.4 57.56 137.89 91.71 194.96 91.71 194.96 98.83"/>
    </g>
  </g>
  <g>
    <rect class="cls-1" x="96.44" width="7.12" height="23.74"/>
    <rect class="cls-1" x="112.47" y="13.16" width="23.74" height="7.12" transform="translate(61.3 125.19) rotate(-67.49)"/>
    <rect class="cls-1" x="133.12" y="26.94" width="23.74" height="7.12" transform="translate(20.9 111.46) rotate(-45)"/>
    <rect class="cls-1" x="72.09" y="4.84" width="7.12" height="23.74" transform="translate(-.64 30.22) rotate(-22.5)"/>
    <rect class="cls-1" x="51.45" y="18.63" width="7.12" height="23.74" transform="translate(-5.46 47.82) rotate(-44.99)"/>
  </g>
</svg>